<svg
      version="1.1"
      viewBox="0 0 2048 2048"
      width="130"
      height="130"
      xmlns="http://www.w3.org/2000/svg"
    >
      <path
        transform="translate(1009,128)"
        d="m0 0h598l25 2 23 4 28 8 24 10 17 9 19 12 13 10 14 12 20 20 9 11 11 15 12 20 13 27 9 27 5 22 3 22 1 14v1302l-3 31-5 23-6 20-10 24-10 19-12 19-10 13-12 14-17 17-11 9-13 10-25 15-16 8-14 6-21 7-21 5-29 4-20 1h-575l-24-1-23-3-26-6-28-10-21-10-17-10-14-10-16-13-8-8-8-7-7-8-10-11-13-18-14-24-9-19-7-19-6-22-5-30-1-12v-234l4-9 6-8 9-6 7-2h11l10 3 9 7 6 10 2 7v153l958-1v-1221l-2-23-4-20-8-24-11-23-12-18-9-11-9-10-7-7-14-11-11-8-16-9-17-8-21-7-20-4-20-2h-599l-24 3-22 6-16 6-16 8-15 9-12 9-10 9-8 7-11 12-8 11-10 16-8 15-9 24-6 25-2 21-1 108-4 11-7 9-8 5-8 2h-11l-11-4-7-6-6-10-2-6v-115l3-26 5-24 9-27 9-20 8-15 12-19 10-13 9-10 7-8 14-14 11-9 13-10 18-11 16-9 16-7 19-7 23-6 26-4zm215 1593-9 3-8 6-6 8-3 9v12l4 11 8 9 10 5 4 1 15 1h105l52-1 10-4 10-9 4-8 2-9-1-10-6-12-9-8-7-3-6-1z"
        fill="#FD8B01"
      />
      <path
        transform="translate(421,445)"
        d="m0 0h135l11 2 8 5 5 5 5 8 6 21 20 81 2 10h649l14 2 16 5 15 8 14 11 10 11 9 14 6 13 4 14 1 6v27l-5 21-87 261-9 19-8 11-8 9-14 11-16 8-15 5-10 2-548 1-17 1-10 4-8 6-5 8-3 11v7l4 13 7 9 9 5 5 2 9 1h440l158 1 9 3 10 9 6 12v15l-6 12-8 8-11 4-16 1h-576l-26-2-15-4-16-8-9-6-10-9-7-7-7-10-8-15-5-16-2-12v-18l3-17 6-16 6-11 9-12 12-12 15-10 11-5 13-4 13-2 34-1-16-65-20-80-17-67-18-73-18-71-21-84-5-21-112-1-11-4-8-7-5-8-2-6v-14l4-10 7-8 12-6z"
        fill="#FD8B01"
      />
      <path
        transform="translate(421,445)"
        d="m0 0h135l11 2 8 5 5 5 5 8 6 21 20 81 2 10h98v1h-7v2h-10l-14 2-1 1-6 1h6l1 3h7l3 1 43 1 9 2h19l6 3 3 4 6 1 2 6h-2v2h-2v-2h-2l2 8v7l-1 9h2l-1 8-2 4v9 3 5l5 5 1 5 8 24 1 4 1 52-2 7-3 3-9-2-5-9-6-7-2-6-3 4-4 10-5 6-6 6-4 13-1 14 2 25 3 16 5 23 4 16 3 17 5 12 6 27 3 25 1 8-2 7-6 12-4 4-5 3-11 8-10 4-1 3 3 1v2l8 1v3l-5 5-10 5-7 2-21 2 1 2-12 1-8 1v2l12 2 5 3v1h-6l-1 3-53 1-6 2-17 1-10 4-8 6-5 8-3 11v7l4 13 7 9 9 5 5 2 9 1h440l158 1 9 3 10 9 6 12v15l-6 12-8 8-11 4-16 1h-576l-26-2-15-4-16-8-9-6-10-9-7-7-7-10-8-15-5-16-2-12v-18l3-17 6-16 6-11 9-12 12-12 15-10 11-5 13-4 13-2 34-1-16-65-20-80-17-67-18-73-18-71-21-84-5-21-112-1-11-4-8-7-5-8-2-6v-14l4-10 7-8 12-6z"
        fill="#FDBE04"
      />
      <path
        transform="translate(622,1176)"
        d="m0 0 21 2 15 4 13 6 12 7 11 9 9 9 10 14 8 16 4 12 3 18v16l-2 14-4 14-7 16-8 12-8 10-10 9-15 10-16 7-19 5-8 1h-18l-17-3-12-4-16-8-14-10-12-12-10-14-9-19-4-14-2-15v-12l3-19 4-13 8-16 6-9 9-11 10-9 10-7 15-8 20-6z"
        fill="#FDBE04"
      />
      <path
        transform="translate(1134,1176)"
        d="m0 0 21 2 18 5 16 8 11 8 10 9 9 10 9 14 7 16 4 17 1 8v16l-2 14-4 14-7 16-8 12-8 10-11 10-18 11-15 6-16 4-8 1h-18l-17-3-12-4-16-8-14-10-12-12-10-14-9-19-4-14-2-15v-12l3-19 4-13 8-16 9-13 11-12 15-11 16-8 15-5 11-2z"
        fill="#FD8B01"
      />
      <path
        transform="translate(1060,1103)"
        d="m0 0 160 1 9 3 10 9 6 12v15l-6 12-8 8-11 4-16 1h-576l-18-1-7-2v-1l17-1h42l7 1 6 1v-2l18-2v-3l-9-1 1-4 8-2h7l1-3 11-3 8-1 2-6-1-9-7-3v-2l-4-2-9-3-10-4-11 1-2-2-11-1 1-5 7-3h2v2h2v-2h16v2l19-1 1-1 14-1h111z"
        fill="#FD8B01"
      />
      <path
        transform="translate(221,864)"
        d="m0 0h324l9 2 9 6 6 7 4 9 1 11-3 10-6 9-9 7-6 2-11 1h-313l-11-2-10-6-6-8-4-9v-14l4-10 7-8 11-6z"
        fill="#FDBE04"
      />
      <path
        transform="translate(221,736)"
        d="m0 0h232l9 2 8 5 7 8 4 9 1 4v7l-3 11-7 9-8 6-6 2-12 1h-222l-12-3-9-7-6-10-2-5v-14l4-10 7-8 11-6z"
        fill="#FDBE04"
      />
      <path
        transform="translate(221,608)"
        d="m0 0h166l9 2 9 5 6 7 4 8 1 4v12l-4 10-6 8-8 5-6 2-12 1h-156l-12-3-9-7-6-10-2-5v-14l4-10 7-8 11-6z"
        fill="#FDBE04"
      />
      <path
        transform="translate(709,1248)"
        d="m0 0 3 1 3 8 3 2 1 9h7l2 5v16l-2 14-4 14-7 16-8 12-8 10-10 9-15 10-16 7-19 5-8 1h-18l-10-2 1-6 8-3 21-3h5v-2h9v-2l5-1 5-3 10-4 16-10 1-2h3l2-4 5-8-1-3 4-6 3-8 5-9 3-12 1-25h2l-1-11-1-8-1-6z"
        fill="#FD8B01"
      />
      <path
        transform="translate(768,1691)"
        d="m0 0 4 4 1 5h2l1 13 4 9 5 15 2 1-2-10-1-2v-12h2l3 9 3 17 4 14 5 15 10 19 3 7 5 8 4 6 7 10v3l20 20 2 1 1 3 4 4-2 1-7-3-5-1-15-16-10-12-11-16-9-15-10-19-10-26-6-22-4-22z"
        fill="#FDBE04"
      />
      <path
        transform="translate(821,225)"
        d="m0 0 1 2-3 5h-2l-2 5-2 6-2 4-1 9-3 3-4 12-4 11-4 10-1 5-1 7-4 15-2 5-1 10-2 8 1 11h-3l-4 4-2-2-3 7-1 3-4 1-1-1 1-17 5-26 5-17 8-21 11-23 13-21 8-11z"
        fill="#FDBC04"
      />
      <path
        transform="translate(723,1294)"
        d="m0 0h4l-1 9-4 14-7 16-8 12-8 10-10 9-15 10-16 7-15 4h-3l-7-7v-1l16-2 12-5 14-9 10-8 7-6h2l2-4 6-7 14-21 3-5 2-6 3-7z"
        fill="#FDBE04"
      />
      <path
        transform="translate(774,1029)"
        d="m0 0 109 1 35 1v1l108 1v1l-118 1h-56l-85-1-4-2v-1z"
        fill="#FDBF05"
      />
      <path
        transform="translate(489,925)"
        d="m0 0h55l2 2-7 1h-300v-1l83-1h166z"
        fill="#FD8B01"
      />
      <path
        transform="translate(767,578)"
        d="m0 0h100v1l-8 1 6 2v1l-43 1h-35l-7-2-8-1v-1l-5-1z"
        fill="#FDB804"
      />
      <path
        transform="translate(791,1463)"
        d="m0 0h4l1 3 4 2 3 7 2 10-2 3h-3l-1 3-2-1v-5l-4-2-1 2h-2l-2 4-3 3h-1v12l-2-2v-12l3-16 3-1-1-3h2v2l3-2-2-6z"
        fill="#FDBF05"
      />
      <path
        transform="translate(767,483)"
        d="m0 0 4 1 7 10 2 5 11 6 6 1 10-4 8-6 9-7h3l-2 6-7 8-7 4-8 2h-11l-11-4-7-6-6-10z"
        fill="#FDBF05"
      />
      <path
        transform="translate(858,282)"
        d="m0 0v3l-10 19-9 24-6 25-3 27-2 2v-21l2-6-1-1 1-11 3-9 2-8 3-7 3-4 4-16h2l1-7 4-5h2l1-3z"
        fill="#FDBE04"
      />
      <path
        transform="translate(649,1163)"
        d="m0 0m-37 0h36v3l43 1v1h-63l-18-1-7-2v-1z"
        fill="#FD9B02"
      />
      <path
        transform="translate(858,282)"
        d="m0 0v3l-10 19-5 13h-2l4-18h2l1-7 4-5h2l1-3z"
        fill="#FDBE04"
      />
      <path
        transform="translate(635,1178)"
        d="m0 0 6 1 2 5-6 1 4 6h-7l-8-6 4-2h3z"
        fill="#FD8C01"
      />
      <path
        transform="translate(806,1673)"
        d="m0 0 1 4h-2l1 4-2 6h-2l-4-6v-3l5-4z"
        fill="#FDBF05"
      />
      <path
        transform="translate(727,1276)"
        d="m0 0h1v13l-1 4h-2v-2h-2v-5l4-2z"
        fill="#FDBF05"
      />
      <path
        transform="translate(867,1864)"
        d="m0 0h6l1 2-2 5-6-4z"
        fill="#FDB604"
      />
      <path
        transform="translate(705,1239)"
        d="m0 0 4 1 2 4-3 4-5-7z"
        fill="#FD8B01"
      />
      <path
        transform="translate(858,282)"
        d="m0 0v3l-7 12-1-3 5-10z"
        fill="#FDA503"
      />
      <path
        transform="translate(922,215)"
        d="m0 0 3 4-8 5h-2l2-6z"
        fill="#FDBF05"
      />
      <path
        transform="translate(953,202)"
        d="m0 0v3l-9 4-2-1 2-3z"
        fill="#FDBF05"
      />
      <path
        transform="translate(858,580)"
        d="m0 0 7 2v1h-15l1-2z"
        fill="#FDBF05"
      />
    </svg>